PathFileType        4      (X/Y/Z)      C:\Users\pc\Desktop\IMUTRC\Sujet_01\Sujet_01_velo_60.trc         
DataRate	CameraRate	NumFrames	NumMarkers	Units	OrigDataRate	OrigDataStartFrame	OrigNumFrames
60.0	60.0	4	64	mm	60.0	1	1370
Frame#	Time	pHipOrigin			pRightASI			pLeftASI			pRightCSI			pLeftCSI			pRightIschialTub			pLeftIschialTub			pSacrum			pL5SpinalProcess			pL3SpinalProcess			pT12SpinalProcess			pIJ			pT4SpinalProcess			pT8SpinalProcess			pPX			pC7SpinalProcess			pTopOfHead			pRightAuricularis			pLeftAuricularis			pBackOfHead			pRightAcromion			pLeftAcromion			pRightArmLatEpicondyle			pRightArmMedEpicondyle			pLeftArmLatEpicondyle			pLeftArmMedEpicondyle			pRightUlnarStyloid			pRightRadialStyloid			pRightOlecranon			pLeftUlnarStyloid			pLeftRadialStyloid			pLeftOlecranon			pRightTopOfHand			pRightPinky			pRightBallHand			pLeftTopOfHand			pLeftPinky			pLeftBallHand			pRightGreaterTrochanter			pRightKneeLatEpicondyle			pRightKneeMedEpicondyle			pRightPatella			pLeftGreaterTrochanter			pLeftKneeLatEpicondyle			pLeftKneeMedEpicondyle			pLeftPatella			pRightTibialTub			pRightLatMalleolus			pRightMedMalleolus			pLeftTibialTub			pLeftLatMalleolus			pLeftMedMalleolus			pRightHeelFoot			pRightFirstMetatarsal			pRightFifthMetatarsal			pRightPivotFoot			pRightHeelCenter			pRightToe			pLeftHeelFoot			pLeftFirstMetatarsal			pLeftFifthMetatarsal			pLeftPivotFoot			pLeftHeelCenter			pLeftToe			
		X1	Y1	Z1	X2	Y2	Z2	X3	Y3	Z3	X4	Y4	Z4	X5	Y5	Z5	X6	Y6	Z6	X7	Y7	Z7	X8	Y8	Z8	X9	Y9	Z9	X10	Y10	Z10	X11	Y11	Z11	X12	Y12	Z12	X13	Y13	Z13	X14	Y14	Z14	X15	Y15	Z15	X16	Y16	Z16	X17	Y17	Z17	X18	Y18	Z18	X19	Y19	Z19	X20	Y20	Z20	X21	Y21	Z21	X22	Y22	Z22	X23	Y23	Z23	X24	Y24	Z24	X25	Y25	Z25	X26	Y26	Z26	X27	Y27	Z27	X28	Y28	Z28	X29	Y29	Z29	X30	Y30	Z30	X31	Y31	Z31	X32	Y32	Z32	X33	Y33	Z33	X34	Y34	Z34	X35	Y35	Z35	X36	Y36	Z36	X37	Y37	Z37	X38	Y38	Z38	X39	Y39	Z39	X40	Y40	Z40	X41	Y41	Z41	X42	Y42	Z42	X43	Y43	Z43	X44	Y44	Z44	X45	Y45	Z45	X46	Y46	Z46	X47	Y47	Z47	X48	Y48	Z48	X49	Y49	Z49	X50	Y50	Z50	X51	Y51	Z51	X52	Y52	Z52	X53	Y53	Z53	X54	Y54	Z54	X55	Y55	Z55	X56	Y56	Z56	X57	Y57	Z57	X58	Y58	Z58	X59	Y59	Z59	X60	Y60	Z60	X61	Y61	Z61	X62	Y62	Z62	X63	Y63	Z63	X64	Y64	Z64	
1	0.0	0.0	1249.99075	7.653985854756496E-14	-11.880730000000016	1356.03723	127.54494000000008	59.59222000000001	1358.17451	-111.3268099999999	-63.30101000000001	1399.22273	89.38833000000007	-4.463129999999986	1400.98284	-106.98939999999992	-42.682610000000004	1182.47805	40.10531000000007	-13.263669999999992	1183.42096	-58.08354999999993	-61.72949	1246.40767	-18.481129999999933	-61.47805	1344.09365	-18.732569999999924	-66.63265	1450.39158	-16.40671999999992	-71.97583	1547.5118	-13.452249999999914	74.74171	1722.20249	57.957830000000115	-54.81478	1724.77979	5.594630000000099	-69.46139	1643.8777	-6.411819999999908	59.15218999999999	1610.6871	43.311220000000105	-43.1855	1770.47973	6.726130000000103	23.887179999999997	2004.95121	15.463800000000127	-39.41384000000001	1923.42051	66.50693000000011	71.97583	1901.48203	-0.5028899999998747	-11.126389999999999	1906.44805	-10.497789999999885	-94.29148000000004	1719.24802	183.4912200000001	27.59597000000002	1757.97039	-150.2377599999999	-128.11069000000003	1435.0535	164.88437000000005	-110.88678000000002	1435.17922	113.77839000000007	-30.613299999999974	1476.41603	-195.74911999999992	-52.04889999999998	1472.95867	-146.40323999999993	4.525989999999981	1265.26597	158.4096900000001	37.77944999999998	1290.09606	143.9516600000001	-137.85415000000003	1426.12724	148.47765000000007	64.36965000000001	1299.71379	-117.4243299999999	83.98228000000002	1323.2238	-85.8681099999999	-50.98025999999998	1466.48399	-189.0229899999999	118.68154999999997	1147.27589	196.0634200000001	49.53445999999998	1189.07845	197.32064000000008	23.00711999999998	1241.12735	162.62138000000007	203.04099	1202.97073	-89.7654899999999	137.79129000000003	1233.26973	-126.47630999999991	88.25683000000001	1276.89525	-110.4467599999999	-34.19638000000002	1236.22419	145.7117700000001	222.65361999999996	1044.49818	275.51971000000003	257.41575	1042.73807	218.0647700000001	257.54146999999995	1076.24298	253.7698100000001	34.950710000000015	1229.62379	-143.63735999999992	304.87579	1013.82202	-156.58671999999993	317.88802	1017.84512	-90.7712699999999	332.72321	1046.69831	-127.48207999999988	260.1816299999999	995.84377	259.7416000000001	30.361859999999982	711.58639	155.95811000000006	63.67817999999998	709.26053	105.98363000000006	359.94202	987.35754	-133.6424599999999	294.50373	613.39752	-148.47764999999995	308.96176	613.39752	-90.07979999999992	-49.785900000000005	637.22184	49.91162000000003	67.26125999999998	510.61981	120.88168000000005	6.788989999999978	520.23754	184.37128000000004	49.91161999999998	498.42477	165.82729000000003	-30.17327000000001	606.54567	73.17019000000005	87.31390999999998	451.59334	208.50990000000002	241.57478	483.7153	-89.26259999999995	422.86587	469.76016	-47.90006999999992	420.16284	450.90187	-134.01962999999992	446.37588	457.31369	-89.89120999999992	284.13167	475.9834	-88.88543999999995	519.73465	451.34189	-90.83412999999992	
2	0.017	0.0	1249.99075	7.653985854756496E-14	-12.257890000000016	1356.79157	126.85347000000009	59.843660000000014	1357.5459	-111.8296999999999	-63.55246000000002	1399.72562	88.38255000000007	-4.274549999999986	1400.35423	-107.86945999999992	-42.745470000000005	1182.72949	40.419620000000066	-13.137949999999993	1183.0438	-57.70638999999993	-61.66663	1246.28195	-18.606849999999934	-61.41519	1343.90506	-19.549769999999924	-66.94695	1450.14013	-17.66393999999992	-72.79302	1547.26036	-15.023779999999915	72.03869	1723.01968	57.58067000000011	-57.01492	1724.59121	3.7716600000000984	-70.90719	1643.62626	-8.234789999999908	57.32921999999999	1611.44143	42.934050000000106	-45.57422	1770.47973	4.840300000000103	22.18993	2005.01408	14.206580000000127	-42.934050000000006	1923.9234	63.67818000000011	70.21572	1901.29345	-0.06285999999987497	-12.509339999999998	1906.63663	-12.509339999999884	-99.32036000000002	1720.12808	180.8510600000001	27.721700000000016	1758.03325	-150.86636999999988	-134.27107000000004	1435.99641	164.06718000000006	-115.97852000000002	1435.55638	113.33836000000007	-24.264339999999976	1475.09595	-195.4976699999999	-46.70570999999998	1471.57573	-146.59181999999993	4.023099999999981	1269.7291	156.83817000000008	36.710819999999984	1295.94213	143.6373600000001	-143.32305000000002	1426.12724	147.15757000000005	64.24393000000002	1294.43347	-119.24728999999991	85.11378000000002	1317.12628	-87.8796599999999	-45.69993999999998	1465.72966	-188.8344099999999	121.07025999999998	1154.81921	194.42904000000007	50.47736999999998	1194.10733	194.80620000000008	23.06997999999998	1246.15623	160.79841000000008	197.82353	1191.02714	-92.6570999999999	133.57960000000003	1224.2806	-128.6135799999999	86.62244000000001	1270.54629	-112.20685999999992	-33.37918000000002	1237.54427	146.0260800000001	229.25401999999997	1054.17877	276.27404000000007	263.51326	1052.3558	218.5047900000001	263.19895999999994	1086.42646	253.7069500000001	34.32210000000001	1228.36657	-143.4487699999999	294.31515	1000.74693	-155.0151999999999	307.39023	1004.39287	-89.1997399999999	323.54551	1032.42887	-125.9734199999999	265.7133999999999	1005.4615	259.9301900000001	31.996239999999982	723.84428	157.84394000000006	64.93539999999999	721.14126	107.61801000000006	349.25565	974.59676	-132.88812999999988	285.64033	600.25958	-147.15756999999994	301.10413	600.25958	-89.01115999999992	-46.70571000000001	645.89665	52.99181000000004	73.67307999999998	523.192	125.34481000000004	13.137949999999977	532.18113	188.96013000000002	56.76346999999998	511.18556	170.47900000000004	-26.27589000000001	615.97482	76.69041000000004	95.42297999999997	465.9885	213.66450000000003	231.45416	471.45741	-88.19396999999994	412.4938	454.92497	-46.705709999999925	409.6022	436.12954	-132.8881299999999	435.87809	442.22705	-88.69684999999991	273.88533	463.15976	-87.81679999999994	509.04828	435.18662	-89.57690999999991	
3	0.033	0.0	1249.99075	7.653985854756496E-14	-12.572200000000016	1357.5459	126.22486000000009	60.032240000000016	1356.91729	-112.3325899999999	-63.74104000000001	1400.22851	87.31391000000008	-4.085959999999987	1399.66276	-108.81236999999992	-42.808330000000005	1182.98093	40.73392000000006	-13.012219999999992	1182.66663	-57.32921999999993	-61.60377	1246.15623	-18.73256999999993	-61.41519	1343.71648	-20.304099999999924	-67.26126	1449.88869	-18.92115999999992	-73.61022	1546.94606	-16.658159999999913	69.27281	1723.83688	57.14064000000011	-59.15219	1724.46549	1.8858300000000983	-72.353	1643.31195	-10.057759999999908	55.506249999999994	1612.1329	42.61975000000011	-47.96293	1770.47973	2.8916100000001026	20.49268	2005.01408	13.075090000000124	-46.39141000000001	1924.42629	60.849440000000115	68.39276	1901.10486	0.3771700000001248	-13.892279999999998	1906.76235	-14.395169999999885	-104.28638000000002	1720.94527	178.14804000000012	27.784560000000017	1758.09611	-151.55783999999989	-140.49431000000004	1437.00219	163.12426000000005	-121.07026000000002	1435.93355	112.83547000000007	-17.915379999999974	1473.90159	-195.1205099999999	-41.29966999999998	1470.31851	-146.6546899999999	3.3944899999999807	1274.38081	155.45522000000008	35.51645999999999	1301.97679	143.57450000000009	-148.79196000000002	1426.12724	145.77463000000006	63.929620000000014	1289.46745	-121.0702599999999	85.99383000000002	1311.15449	-89.8912099999999	-40.35674999999998	1464.97533	-188.58295999999993	123.39611999999997	1162.42539	192.9203700000001	51.42028999999998	1199.19907	192.2917600000001	23.19569999999998	1251.24797	159.03830000000008	192.2289	1179.335	-95.3601199999999	129.17933000000002	1215.54293	-130.6251299999999	84.98806000000002	1264.38591	-113.96696999999992	-32.62485000000002	1238.86435	146.2146600000001	235.66583999999997	1064.11081	276.8397900000001	269.42219	1062.16212	218.69338000000008	268.60499999999996	1096.79852	253.32978000000008	33.63063000000001	1227.23507	-143.3230499999999	283.25161	988.11187	-153.4436699999999	296.3267	991.4435	-87.6282199999999	313.80205	1018.59945	-124.4647599999999	271.30801999999994	1015.1421	260.1187700000001	33.693489999999976	736.16503	159.72977000000006	66.25547999999999	733.08484	109.25240000000005	338.56928	961.77312	-132.19665999999992	276.77693	587.12163	-145.90034999999995	293.30937	587.12163	-88.06823999999992	-43.56266000000001	654.57147	56.19772000000003	80.02203999999999	535.95278	129.80794000000003	19.549769999999974	544.3133	193.42326000000003	63.55245999999998	524.13492	175.19357000000002	-22.315650000000012	625.52969	80.21062000000005	103.53204999999997	480.38367	218.88196000000002	221.27068	459.26238	-87.12532999999995	402.05888	440.15264	-45.511359999999925	398.97869	421.42006	-131.69376999999992	425.25458	427.07755	-87.50249999999991	263.57612	450.33612	-86.74815999999994	498.42477	419.03135	-88.38254999999991	
4	0.05	0.0	1249.99075	7.653985854756496E-14	-12.823640000000015	1358.11165	125.65912000000009	60.472270000000016	1356.28868	-112.6468899999999	-63.92962000000001	1400.66854	86.43386000000007	-3.6459399999999866	1399.15987	-109.50383999999991	-42.99692000000001	1183.16952	40.92250000000006	-12.886499999999993	1182.41519	-57.077779999999926	-61.54091	1246.09337	-18.921159999999933	-61.2266	1343.59076	-21.058429999999927	-67.32412	1449.76297	-19.989789999999918	-73.98738	1546.75747	-18.041099999999915	67.13554	1724.52835	57.07778000000011	-60.66085	1724.33976	0.37717000000009815	-73.29591	1643.12337	-11.629279999999907	54.18616999999999	1612.76151	42.49403000000011	-49.66018	1770.54259	1.3829400000001024	19.10974	2005.1398	12.383610000000123	-49.220150000000004	1924.80346	58.58644000000012	67.00981	1901.042	1.0686400000001246	-14.898049999999998	1906.95093	-15.778109999999884	-108.43520000000002	1721.63674	175.75932000000012	28.41317000000002	1758.09611	-151.8721499999999	-145.71177000000003	1437.88224	162.30707000000007	-125.28195000000001	1436.31072	112.45831000000007	-11.943589999999977	1473.02153	-194.6176199999999	-36.207929999999976	1469.24987	-146.59181999999993	3.080189999999981	1278.71822	154.4494500000001	34.63639999999999	1307.38283	143.6373600000001	-153.19223000000002	1426.12724	144.64313000000007	63.30101000000001	1285.00432	-122.5160699999999	86.49672000000001	1305.81131	-91.4627399999999	-35.32787999999998	1464.47244	-188.26865999999993	126.09913999999998	1169.78013	191.78887000000012	52.92894999999998	1204.10223	190.2802100000001	23.761449999999982	1256.0254	157.5925000000001	186.13139	1168.71149	-97.2459499999999	124.52762000000001	1207.6853	-132.0080699999999	83.03937000000002	1258.85415	-115.28704999999991	-31.996240000000018	1240.24729	146.4032400000001	241.63763999999998	1074.42001	277.5941200000001	274.95396	1072.28273	219.19627000000008	273.5081599999999	1107.48489	253.26692000000008	32.876300000000015	1226.16643	-143.1973299999999	271.93663	976.54545	-152.6264799999999	285.2003	979.56278	-86.81101999999991	303.80716	1005.77581	-123.7732899999999	276.83978999999994	1025.26272	260.4959300000001	36.77367999999998	747.60573	162.30707000000007	68.76991999999998	744.46268	111.45253000000005	327.75719	949.89239	-132.13379999999992	267.1592	575.05232	-145.39746999999994	284.57169	574.98946	-87.81679999999994	-38.596650000000004	661.9262	60.09510000000004	88.50826999999998	548.21068	135.52829000000003	27.910279999999975	555.94258	199.14361000000002	72.47871999999997	536.76998	181.10251000000002	-16.46958000000001	633.95306	84.54803000000004	113.71552999999997	495.03028	225.48236000000003	209.9557	448.26171	-87.06246999999995	390.30387	426.00892	-45.19704999999992	387.0351	407.46492	-131.3794699999999	413.37386	412.61953	-87.12532999999992	252.13542	438.58111	-86.55957999999994	486.35546	403.3161	-87.94251999999992	
